<mxfile host="Electron" modified="2024-03-09T19:12:03.318Z" agent="Mozilla/5.0 (X11; Linux x86_64) AppleWebKit/537.36 (KHTML, like Gecko) draw.io/23.1.5 Chrome/120.0.6099.291 Electron/28.2.5 Safari/537.36" etag="XSM7iNlmJuyDekXODQ5g" version="23.1.5" type="device">
  <diagram name="Page-1" id="eq7ibEuW6xjv4TvQRzFv">
    <mxGraphModel dx="2579" dy="679" grid="1" gridSize="10" guides="1" tooltips="1" connect="1" arrows="1" fold="1" page="1" pageScale="1" pageWidth="827" pageHeight="1169" math="0" shadow="0">
      <root>
        <mxCell id="0" />
        <mxCell id="1" parent="0" />
        <mxCell id="3RgGHsAJNy6ZNnNM0Te1-4" style="edgeStyle=orthogonalEdgeStyle;rounded=0;orthogonalLoop=1;jettySize=auto;html=1;entryX=0.5;entryY=0;entryDx=0;entryDy=0;" parent="1" source="3RgGHsAJNy6ZNnNM0Te1-1" target="3RgGHsAJNy6ZNnNM0Te1-2" edge="1">
          <mxGeometry relative="1" as="geometry" />
        </mxCell>
        <mxCell id="3RgGHsAJNy6ZNnNM0Te1-1" value="" style="ellipse;fillColor=strokeColor;html=1;" parent="1" vertex="1">
          <mxGeometry x="399" y="50" width="30" height="30" as="geometry" />
        </mxCell>
        <mxCell id="3RgGHsAJNy6ZNnNM0Te1-7" style="edgeStyle=orthogonalEdgeStyle;rounded=0;orthogonalLoop=1;jettySize=auto;html=1;entryX=0;entryY=0.5;entryDx=0;entryDy=0;" parent="1" source="3RgGHsAJNy6ZNnNM0Te1-2" target="3RgGHsAJNy6ZNnNM0Te1-5" edge="1">
          <mxGeometry relative="1" as="geometry" />
        </mxCell>
        <mxCell id="3RgGHsAJNy6ZNnNM0Te1-10" style="edgeStyle=orthogonalEdgeStyle;rounded=0;orthogonalLoop=1;jettySize=auto;html=1;" parent="1" source="3RgGHsAJNy6ZNnNM0Te1-2" target="3RgGHsAJNy6ZNnNM0Te1-9" edge="1">
          <mxGeometry relative="1" as="geometry" />
        </mxCell>
        <mxCell id="3RgGHsAJNy6ZNnNM0Te1-11" style="edgeStyle=orthogonalEdgeStyle;rounded=0;orthogonalLoop=1;jettySize=auto;html=1;entryX=0;entryY=0.5;entryDx=0;entryDy=0;" parent="1" source="3RgGHsAJNy6ZNnNM0Te1-2" target="3RgGHsAJNy6ZNnNM0Te1-8" edge="1">
          <mxGeometry relative="1" as="geometry" />
        </mxCell>
        <mxCell id="3RgGHsAJNy6ZNnNM0Te1-13" style="edgeStyle=orthogonalEdgeStyle;rounded=0;orthogonalLoop=1;jettySize=auto;html=1;entryX=1;entryY=0.5;entryDx=0;entryDy=0;" parent="1" source="3RgGHsAJNy6ZNnNM0Te1-2" target="3RgGHsAJNy6ZNnNM0Te1-12" edge="1">
          <mxGeometry relative="1" as="geometry" />
        </mxCell>
        <mxCell id="3RgGHsAJNy6ZNnNM0Te1-15" style="edgeStyle=orthogonalEdgeStyle;rounded=0;orthogonalLoop=1;jettySize=auto;html=1;entryX=0.5;entryY=0;entryDx=0;entryDy=0;" parent="1" source="3RgGHsAJNy6ZNnNM0Te1-2" target="3RgGHsAJNy6ZNnNM0Te1-14" edge="1">
          <mxGeometry relative="1" as="geometry" />
        </mxCell>
        <mxCell id="3RgGHsAJNy6ZNnNM0Te1-2" value="Init express" style="rounded=0;whiteSpace=wrap;html=1;" parent="1" vertex="1">
          <mxGeometry x="354" y="140" width="120" height="60" as="geometry" />
        </mxCell>
        <mxCell id="3RgGHsAJNy6ZNnNM0Te1-3" value="Start application" style="text;html=1;align=center;verticalAlign=middle;resizable=0;points=[];autosize=1;strokeColor=none;fillColor=none;" parent="1" vertex="1">
          <mxGeometry x="440" y="50" width="110" height="30" as="geometry" />
        </mxCell>
        <mxCell id="3RgGHsAJNy6ZNnNM0Te1-5" value="Init Websocket" style="rounded=0;whiteSpace=wrap;html=1;" parent="1" vertex="1">
          <mxGeometry x="580" y="140" width="120" height="60" as="geometry" />
        </mxCell>
        <mxCell id="3RgGHsAJNy6ZNnNM0Te1-8" value="Init Mysql" style="rounded=0;whiteSpace=wrap;html=1;" parent="1" vertex="1">
          <mxGeometry x="580" y="270" width="120" height="60" as="geometry" />
        </mxCell>
        <mxCell id="3RgGHsAJNy6ZNnNM0Te1-9" value="Init Redis" style="rounded=0;whiteSpace=wrap;html=1;" parent="1" vertex="1">
          <mxGeometry x="120" y="140" width="120" height="60" as="geometry" />
        </mxCell>
        <mxCell id="B4PrZzySkUKO4n5NaAtc-4" style="edgeStyle=orthogonalEdgeStyle;rounded=0;orthogonalLoop=1;jettySize=auto;html=1;entryX=1;entryY=0.5;entryDx=0;entryDy=0;" edge="1" parent="1" source="3RgGHsAJNy6ZNnNM0Te1-12" target="3RgGHsAJNy6ZNnNM0Te1-18">
          <mxGeometry relative="1" as="geometry" />
        </mxCell>
        <mxCell id="3RgGHsAJNy6ZNnNM0Te1-12" value="Init Rabbit" style="rounded=0;whiteSpace=wrap;html=1;" parent="1" vertex="1">
          <mxGeometry x="120" y="270" width="120" height="60" as="geometry" />
        </mxCell>
        <mxCell id="3RgGHsAJNy6ZNnNM0Te1-14" value="Listen on port" style="rounded=0;whiteSpace=wrap;html=1;" parent="1" vertex="1">
          <mxGeometry x="354" y="420" width="120" height="60" as="geometry" />
        </mxCell>
        <mxCell id="3RgGHsAJNy6ZNnNM0Te1-23" style="edgeStyle=orthogonalEdgeStyle;rounded=0;orthogonalLoop=1;jettySize=auto;html=1;entryX=1;entryY=0.5;entryDx=0;entryDy=0;" parent="1" source="3RgGHsAJNy6ZNnNM0Te1-18" target="3RgGHsAJNy6ZNnNM0Te1-22" edge="1">
          <mxGeometry relative="1" as="geometry" />
        </mxCell>
        <mxCell id="3RgGHsAJNy6ZNnNM0Te1-18" value="Send heartbeat to each service" style="rounded=0;whiteSpace=wrap;html=1;" parent="1" vertex="1">
          <mxGeometry x="-100" y="270" width="120" height="60" as="geometry" />
        </mxCell>
        <mxCell id="3RgGHsAJNy6ZNnNM0Te1-30" style="edgeStyle=orthogonalEdgeStyle;rounded=0;orthogonalLoop=1;jettySize=auto;html=1;entryX=0.5;entryY=1;entryDx=0;entryDy=0;" parent="1" source="3RgGHsAJNy6ZNnNM0Te1-22" edge="1">
          <mxGeometry relative="1" as="geometry">
            <mxPoint x="-260" y="200.00000000000023" as="targetPoint" />
          </mxGeometry>
        </mxCell>
        <mxCell id="3RgGHsAJNy6ZNnNM0Te1-33" style="edgeStyle=orthogonalEdgeStyle;rounded=0;orthogonalLoop=1;jettySize=auto;html=1;entryX=1;entryY=0.5;entryDx=0;entryDy=0;" parent="1" source="3RgGHsAJNy6ZNnNM0Te1-22" target="3RgGHsAJNy6ZNnNM0Te1-32" edge="1">
          <mxGeometry relative="1" as="geometry" />
        </mxCell>
        <mxCell id="3RgGHsAJNy6ZNnNM0Te1-22" value="Did service responde ?" style="rhombus;whiteSpace=wrap;html=1;" parent="1" vertex="1">
          <mxGeometry x="-300" y="260" width="80" height="80" as="geometry" />
        </mxCell>
        <mxCell id="3RgGHsAJNy6ZNnNM0Te1-29" value="Ignore request to this service" style="rounded=0;whiteSpace=wrap;html=1;" parent="1" vertex="1">
          <mxGeometry x="-320" y="140" width="120" height="60" as="geometry" />
        </mxCell>
        <mxCell id="3RgGHsAJNy6ZNnNM0Te1-31" value="No" style="text;html=1;align=center;verticalAlign=middle;resizable=0;points=[];autosize=1;strokeColor=none;fillColor=none;" parent="1" vertex="1">
          <mxGeometry x="-250" y="215" width="40" height="30" as="geometry" />
        </mxCell>
        <mxCell id="3RgGHsAJNy6ZNnNM0Te1-32" value="Accept express requests to this service" style="rounded=0;whiteSpace=wrap;html=1;" parent="1" vertex="1">
          <mxGeometry x="-510" y="270" width="120" height="60" as="geometry" />
        </mxCell>
        <mxCell id="3RgGHsAJNy6ZNnNM0Te1-34" value="Yes" style="text;html=1;align=center;verticalAlign=middle;resizable=0;points=[];autosize=1;strokeColor=none;fillColor=none;" parent="1" vertex="1">
          <mxGeometry x="-350" y="270" width="40" height="30" as="geometry" />
        </mxCell>
      </root>
    </mxGraphModel>
  </diagram>
</mxfile>
